<?xml version="1.0" encoding="UTF-8"?>
<!-- Generator: visioncortex VTracer 0.6.3 -->
<svg version="1.1" xmlns="http://www.w3.org/2000/svg" width="1280" height="1280">
<path d="M0 0 C422.4 0 844.8 0 1280 0 C1280 422.4 1280 844.8 1280 1280 C857.6 1280 435.2 1280 0 1280 C0 857.6 0 435.2 0 0 Z " fill="#000102" transform="translate(0,0)"/>
<path d="M0 0 C0.91 0.39 0.91 0.39 1.85 0.78 C13.86 6.57 23.49 18.93 32.76 28.25 C35.3 30.8 37.85 33.36 40.4 35.92 C45.81 41.34 51.22 46.76 56.62 52.19 C62.9 58.49 69.18 64.78 75.46 71.08 C77.96 73.59 80.46 76.1 82.96 78.61 C84.5 80.16 86.05 81.7 87.59 83.25 C88.28 83.94 88.96 84.63 89.67 85.34 C93.54 89.21 97.51 92.89 101.69 96.42 C104.6 99.06 107.02 102.02 109.5 105.06 C104.13 117.94 89.58 129.9 77.5 136.06 C76.91 136.41 76.31 136.76 75.7 137.11 C70.08 139.54 63.29 139.46 57.56 137.35 C43.23 130.54 31.17 117.61 21.95 104.97 C15.47 96.43 8.06 88.86 -2.5 86.06 C-3.42 85.71 -4.33 85.36 -5.27 85 C-9.12 83.88 -12.72 83.72 -16.69 83.75 C-17.44 83.75 -18.19 83.76 -18.96 83.76 C-39.72 84.2 -51.46 97.87 -65.36 111.72 C-65.86 112.21 -66.35 112.7 -66.85 113.21 C-69.45 115.79 -72.04 118.37 -74.63 120.96 C-77.29 123.6 -79.95 126.24 -82.61 128.88 C-84.69 130.93 -86.75 132.99 -88.81 135.05 C-89.79 136.03 -90.77 137 -91.76 137.97 C-102.6 148.68 -109.81 159.23 -110 175 C-109.77 192.32 -101.79 203.29 -89.87 214.95 C-88.47 216.34 -87.07 217.73 -85.68 219.11 C-83.74 221.03 -81.8 222.95 -79.85 224.86 C-76.44 228.22 -73.03 231.59 -69.63 234.96 C-67.83 236.75 -66.02 238.54 -64.2 240.32 C-63.38 241.13 -62.56 241.95 -61.71 242.78 C-61 243.49 -60.28 244.2 -59.54 244.93 C-57.37 247.2 -55.45 249.61 -53.5 252.06 C-42.84 261.93 -33.11 266.24 -18.81 266.31 C-17.86 266.33 -16.9 266.35 -15.92 266.38 C-3.35 266.44 6.01 261.77 15.18 253.39 C18.47 250.08 21.35 246.5 24.27 242.86 C34.91 229.55 46.54 218.01 64 215.19 C73.55 214.52 81.23 216.9 88.5 223.06 C96.53 230.35 103.27 238.19 109.5 247.06 C104.87 252.61 99.95 257.75 94.84 262.86 C93.56 264.13 93.56 264.13 92.26 265.44 C89.95 267.75 87.64 270.06 85.32 272.38 C82.89 274.81 80.46 277.24 78.02 279.67 C73.94 283.76 69.86 287.83 65.78 291.91 C61.07 296.62 56.36 301.33 51.66 306.04 C47.61 310.09 43.55 314.15 39.5 318.2 C37.08 320.62 34.66 323.03 32.25 325.45 C29.56 328.15 26.86 330.84 24.16 333.53 C22.98 334.72 22.98 334.72 21.76 335.93 C11.42 346.24 11.42 346.24 5.06 349.75 C4.36 350.15 3.66 350.54 2.94 350.95 C-9.51 356.63 -24.28 356.14 -37.06 351.88 C-48.17 346.02 -56.46 338.68 -65.23 329.85 C-66.57 328.51 -67.91 327.18 -69.25 325.85 C-72.87 322.25 -76.48 318.63 -80.08 315.02 C-83.87 311.22 -87.66 307.44 -91.46 303.65 C-97.82 297.29 -104.18 290.92 -110.53 284.55 C-117.86 277.2 -125.21 269.86 -132.56 262.53 C-138.89 256.22 -145.21 249.9 -151.53 243.58 C-155.29 239.81 -159.06 236.04 -162.83 232.28 C-166.38 228.74 -169.92 225.2 -173.45 221.64 C-174.74 220.35 -176.03 219.05 -177.33 217.76 C-189.64 205.53 -197.69 194.59 -197.94 176.69 C-197.76 148.74 -175.15 131.55 -156.87 113.3 C-154.32 110.75 -151.76 108.19 -149.21 105.64 C-144.94 101.36 -140.66 97.08 -136.38 92.81 C-131.45 87.88 -126.52 82.96 -121.6 78.03 C-117.34 73.77 -113.08 69.51 -108.83 65.25 C-106.29 62.72 -103.76 60.19 -101.23 57.66 C-98.42 54.84 -95.59 52.02 -92.77 49.2 C-91.95 48.38 -91.12 47.55 -90.28 46.7 C-86.05 42.5 -81.76 38.44 -77.23 34.58 C-74.45 32.15 -71.89 29.52 -69.31 26.87 C-68.19 25.73 -67.07 24.59 -65.95 23.45 C-64.22 21.69 -62.49 19.93 -60.77 18.16 C-44.46 1.44 -23.42 -9.93 0 0 Z " fill="#006FA2" transform="translate(608.5,358.9375)"/>
<path d="M0 0 C6.01 3.98 10.65 9.58 15.3 15.03 C22.03 22.86 30.54 31.15 41.38 32.24 C51.11 32.5 57.59 29.86 64.69 23.26 C65.45 22.51 66.22 21.77 67 21 C67.51 20.51 68.01 20.01 68.53 19.51 C75.93 12.36 75.93 12.36 82.76 4.68 C86.24 0.52 89.45 -0.14 94.69 -0.69 C101.11 -0.51 104.29 3.01 108.55 7.48 C110.76 9.79 113.02 12.03 115.28 14.29 C116.51 15.51 117.73 16.74 118.95 17.97 C122.04 21.09 125.15 24.1 128.5 26.94 C134.92 32.41 140.29 38.22 141.56 46.81 C141 57.31 129.55 65.94 122.6 72.85 C120.62 74.81 118.67 76.8 116.72 78.78 C115.45 80.05 114.18 81.32 112.91 82.58 C112.05 83.46 112.05 83.46 111.17 84.36 C106.35 89.1 101.32 92.46 94.56 93.56 C83.47 91.81 76.33 82.97 69.44 74.81 C63.24 67.61 56.53 63.08 46.94 62.19 C36.63 61.57 28.76 63.62 20.74 70.18 C17.7 73.36 17.01 75.32 16.94 79.75 C17.79 85.16 21.24 88.27 25 92 C25.55 92.59 26.1 93.17 26.67 93.78 C29.74 96.99 32.96 99.79 36.49 102.5 C42.7 107.44 48.28 112.95 53.89 118.55 C55 119.66 56.11 120.76 57.22 121.87 C59.54 124.17 61.85 126.48 64.16 128.79 C67.09 131.72 70.04 134.64 72.99 137.56 C75.29 139.84 77.58 142.12 79.86 144.41 C80.95 145.49 82.03 146.56 83.12 147.64 C91.49 155.9 100.46 164.86 102 177 C101.96 184.49 100.53 190.94 95.69 196.79 C94.33 198.13 94.33 198.13 92.95 199.5 C92.2 200.26 92.2 200.26 91.43 201.03 C89.79 202.67 88.13 204.29 86.47 205.92 C85.32 207.06 84.17 208.21 83.02 209.36 C79.99 212.36 76.96 215.36 73.92 218.35 C70.84 221.4 67.76 224.45 64.69 227.51 C59.28 232.88 53.86 238.24 48.43 243.59 C46.89 245.12 45.37 246.66 43.86 248.21 C39.4 252.5 34.08 253.87 28.05 254.12 C15.06 253.61 8.08 247.49 -0.5 238.38 C-4.6 233.94 -8.52 229.4 -12.3 224.7 C-21.74 213.04 -33.97 204.54 -49.21 202.74 C-59.36 201.96 -68.54 203.04 -78 207 C-79.16 207.47 -79.16 207.47 -80.34 207.96 C-90.06 212.65 -98.33 221.71 -105.2 229.87 C-124.21 252.35 -124.21 252.35 -136 254 C-146.33 254.56 -153.24 251.16 -160.96 244.41 C-164.29 241.29 -167.5 238.05 -170.72 234.81 C-171.91 233.62 -173.1 232.44 -174.29 231.25 C-176.77 228.77 -179.25 226.29 -181.72 223.81 C-184.87 220.62 -188.05 217.46 -191.23 214.3 C-193.69 211.86 -196.14 209.41 -198.58 206.95 C-199.75 205.78 -200.92 204.62 -202.09 203.45 C-203.73 201.82 -205.35 200.19 -206.97 198.54 C-207.9 197.62 -208.82 196.69 -209.78 195.73 C-215.35 188.89 -214.7 180.39 -214 172 C-211.25 160.64 -200.44 152.26 -192.54 144.3 C-191.8 143.55 -191.8 143.55 -191.05 142.8 C-188.45 140.18 -185.86 137.57 -183.26 134.96 C-180.59 132.29 -177.94 129.6 -175.29 126.91 C-173.23 124.82 -171.16 122.74 -169.09 120.67 C-168.1 119.68 -167.13 118.69 -166.15 117.7 C-158.09 109.49 -151.11 103.93 -139.25 103.75 C-129.12 103.95 -124.51 106.91 -117.49 114.12 C-114.39 117.39 -111.49 120.78 -108.69 124.31 C-95.98 140.2 -79.76 156.58 -58.56 159 C-42.89 159.56 -31.56 152.82 -20.06 142.94 C-16.07 139.2 -12.48 135.21 -9 131 C-8.23 130.08 -7.46 129.17 -6.67 128.23 C1.32 119.12 1.32 119.12 3.47 107.68 C1.05 93.86 -13.36 84.76 -23.86 77.06 C-49.64 58.13 -49.64 58.13 -52 52 C-52.8 46.61 -52.78 41.54 -50 36.75 C-48.05 34.15 -46.03 32.07 -43.54 30 C-39.99 26.95 -36.67 23.73 -33.4 20.39 C-32.91 19.89 -32.42 19.4 -31.92 18.88 C-29.88 16.82 -27.86 14.75 -25.84 12.67 C-24.35 11.13 -22.84 9.6 -21.34 8.08 C-20.45 7.17 -19.57 6.27 -18.67 5.34 C-13.14 0.49 -7.24 -1.83 0 0 Z " fill="#00A0C1" transform="translate(731,358)"/>
<path d="M0 0 C6.01 3.98 10.65 9.58 15.3 15.03 C22.03 22.86 30.54 31.15 41.38 32.24 C51.11 32.5 57.59 29.86 64.69 23.26 C65.45 22.51 66.22 21.77 67 21 C67.76 20.26 67.76 20.26 68.53 19.51 C75.93 12.36 75.93 12.36 82.76 4.68 C86.24 0.52 89.45 -0.14 94.69 -0.69 C101.11 -0.51 104.29 3.01 108.55 7.48 C110.76 9.79 113.02 12.03 115.28 14.29 C116.51 15.51 117.73 16.74 118.95 17.97 C122.04 21.09 125.15 24.1 128.5 26.94 C134.92 32.41 140.29 38.22 141.56 46.81 C141 57.31 129.55 65.94 122.6 72.85 C120.62 74.81 118.67 76.8 116.72 78.78 C115.45 80.05 114.18 81.32 112.91 82.58 C112.34 83.17 111.77 83.75 111.17 84.36 C106.35 89.1 101.32 92.46 94.56 93.56 C83.47 91.81 76.33 82.97 69.44 74.81 C63.24 67.61 56.53 63.08 46.94 62.19 C36.63 61.57 28.76 63.62 20.74 70.18 C17.7 73.36 17.01 75.32 16.94 79.75 C17.79 85.16 21.24 88.27 25 92 C25.55 92.59 26.1 93.17 26.67 93.78 C29.74 96.99 32.96 99.79 36.49 102.5 C42.7 107.44 48.28 112.95 53.89 118.55 C55 119.66 56.11 120.76 57.22 121.87 C59.54 124.17 61.85 126.48 64.16 128.79 C67.09 131.72 70.04 134.64 72.99 137.56 C75.29 139.84 77.58 142.12 79.86 144.41 C80.95 145.49 82.03 146.56 83.12 147.64 C91.49 155.9 100.46 164.86 102 177 C101.96 186.09 99.9 192.29 93.55 198.84 C91.81 200.55 90.07 202.25 88.31 203.94 C86.97 205.25 86.97 205.25 85.61 206.59 C83.41 208.73 81.21 210.87 79 213 C78.67 212.34 78.34 211.68 78 211 C77.01 210.67 76.02 210.34 75 210 C73.29 208.38 71.63 206.7 70 205 C68.93 203.93 67.85 202.86 66.77 201.8 C65.89 200.93 65.89 200.93 64.99 200.04 C64.36 199.41 63.73 198.79 63.09 198.15 C56.2 191.33 49.33 184.51 42.47 177.68 C38.32 173.55 34.17 169.43 30.01 165.31 C25.98 161.32 21.95 157.32 17.93 153.31 C16.41 151.79 14.87 150.28 13.34 148.76 C11.19 146.64 9.05 144.51 6.91 142.37 C6.29 141.75 5.66 141.14 5.01 140.51 C0.67 136.13 -2.26 131.51 -5 126 C-4.42 125.32 -3.85 124.64 -3.25 123.95 C0.99 118.63 4.3 114.47 3.64 107.47 C0.03 93.64 -12.98 85.05 -23.86 77.06 C-49.64 58.13 -49.64 58.13 -52 52 C-52.8 46.61 -52.78 41.54 -50 36.75 C-48.05 34.15 -46.03 32.07 -43.54 30 C-39.99 26.95 -36.67 23.73 -33.4 20.39 C-32.91 19.89 -32.42 19.4 -31.92 18.88 C-29.88 16.82 -27.86 14.75 -25.84 12.67 C-24.35 11.13 -22.84 9.6 -21.34 8.08 C-20.45 7.17 -19.57 6.27 -18.67 5.34 C-13.14 0.49 -7.24 -1.83 0 0 Z " fill="#00CFE0" transform="translate(731,358)"/>
<path d="M0 0 C4.12 -0.03 8.25 -0.05 12.38 -0.06 C14.14 -0.08 14.14 -0.08 15.94 -0.09 C17.62 -0.09 17.62 -0.09 19.34 -0.1 C20.89 -0.11 20.89 -0.11 22.48 -0.11 C25 0 25 0 27 1 C28.85 8.35 29.2 16.05 29.61 23.58 C29.91 28.86 30.35 34.12 30.88 39.38 C31 40.6 31 40.6 31.12 41.84 C31.64 46.86 32.22 51.87 32.83 56.88 C32.97 58.05 33.11 59.22 33.26 60.43 C33.54 62.73 33.83 65.03 34.12 67.33 C34.25 68.39 34.38 69.44 34.51 70.53 C34.63 71.46 34.75 72.4 34.87 73.36 C35 76.1 34.65 78.35 34 81 C34.66 80.67 35.32 80.34 36 80 C36.05 79.04 36.1 78.08 36.15 77.09 C36.77 65.69 37.68 54.32 38.67 42.94 C38.94 39.94 39.19 36.93 39.45 33.93 C42.23 1.77 42.23 1.77 44 0 C45.76 -0.1 47.52 -0.13 49.28 -0.13 C50.35 -0.13 51.42 -0.14 52.52 -0.14 C54.21 -0.13 54.21 -0.13 55.94 -0.12 C57.62 -0.13 57.62 -0.13 59.34 -0.14 C60.95 -0.13 60.95 -0.13 62.59 -0.13 C64.07 -0.13 64.07 -0.13 65.59 -0.13 C68 0 68 0 70 1 C69.99 1.64 69.98 2.28 69.96 2.93 C69.96 3.76 69.95 4.59 69.94 5.44 C69.93 6.26 69.91 7.08 69.9 7.93 C69.77 9.99 69.77 9.99 71 11 C71.36 14.03 71.66 17.04 71.93 20.07 C72.01 21.01 72.1 21.95 72.19 22.91 C72.46 25.94 72.73 28.97 73 32 C73.18 33.98 73.36 35.97 73.54 37.95 C74.07 43.9 74.6 49.86 75.12 55.81 C75.31 57.88 75.49 59.96 75.68 62.03 C76.12 67.02 76.56 72.01 77 77 C78.51 75.49 78.28 74.05 78.45 71.94 C78.52 71.07 78.6 70.2 78.67 69.31 C78.75 68.36 78.82 67.41 78.9 66.43 C78.98 65.44 79.07 64.46 79.15 63.44 C79.42 60.25 79.68 57.06 79.94 53.88 C80.11 51.81 80.28 49.74 80.45 47.68 C80.54 46.66 80.62 45.64 80.71 44.59 C80.88 42.52 81.05 40.45 81.22 38.38 C81.66 33.1 82.09 27.81 82.5 22.52 C82.67 20.46 82.84 18.39 83 16.32 C83.07 15.37 83.15 14.42 83.22 13.44 C83.61 8.67 84.21 4.49 86 0 C90.29 -0.09 94.58 -0.14 98.88 -0.19 C100.71 -0.23 100.71 -0.23 102.58 -0.26 C104.33 -0.28 104.33 -0.28 106.12 -0.29 C107.74 -0.32 107.74 -0.32 109.39 -0.34 C110.25 -0.23 111.11 -0.12 112 0 C114.43 3.65 114.08 4.59 113.5 8.84 C113.34 10.07 113.18 11.3 113.01 12.57 C112.92 13.24 112.83 13.91 112.73 14.6 C112.22 18.32 111.76 22.04 111.28 25.77 C111.18 26.58 111.07 27.39 110.97 28.22 C109.66 38.49 108.58 48.78 107.49 59.07 C107.28 61.1 107.06 63.12 106.85 65.14 C106.07 72.38 105.31 79.61 104.54 86.85 C103.88 93.07 103.22 99.29 102.56 105.5 C102.25 108.36 101.95 111.22 101.65 114.08 C100.62 123.75 99.47 133.38 98 143 C93.34 143.05 88.67 143.09 84.01 143.11 C82.42 143.12 80.84 143.13 79.25 143.15 C76.97 143.18 74.69 143.19 72.41 143.2 C71.7 143.21 70.99 143.22 70.26 143.23 C68.5 143.23 66.75 143.12 65 143 C62.29 140.29 62.46 138.42 62 134.62 C61.92 133.96 61.84 133.3 61.75 132.62 C59.77 116.12 58.4 99.56 57 83 C54.7 92.89 53.9 102.91 52.94 113 C52.68 115.69 52.42 118.39 52.15 121.08 C51.99 122.75 51.83 124.42 51.67 126.08 C51.11 131.77 51.11 131.77 50 134 C49.96 135.35 49.96 136.71 50 138.06 C50 139.36 50 140.66 50 142 C49 143 49 143 45.86 143.11 C44.47 143.11 43.07 143.11 41.68 143.1 C40.95 143.1 40.22 143.09 39.47 143.09 C37.12 143.09 34.78 143.08 32.44 143.06 C30.85 143.06 29.27 143.05 27.68 143.05 C23.79 143.04 19.89 143.02 16 143 C16 142.34 16 141.68 16 141 C15.34 141 14.68 141 14 141 C11.74 122.36 9.63 103.71 7.75 85.03 C6.6 73.52 5.32 62.04 3.94 50.56 C2.64 39.77 1.44 28.97 0.39 18.15 C0.26 16.73 0.12 15.3 -0.02 13.88 C-0.22 11.92 -0.4 9.96 -0.58 8 C-0.69 6.89 -0.79 5.77 -0.9 4.62 C-1 2 -1 2 0 0 Z " fill="#D7D8DA" transform="translate(510,773)"/>
<path d="M0 0 C7.21 4.83 13.07 11.99 18.43 18.73 C31.14 34.62 47.36 51 68.56 53.42 C85.09 54.01 97.43 46.31 109.16 35.4 C111.76 32.77 114.16 30.01 116.55 27.19 C118.53 24.97 120.72 23.17 123.12 21.42 C123.45 21.96 123.78 22.51 124.12 23.06 C130.01 32.11 137.65 39.35 145.29 46.91 C146.77 48.39 148.25 49.87 149.73 51.35 C152.81 54.43 155.9 57.51 159 60.58 C162.96 64.52 166.92 68.46 170.87 72.4 C174.65 76.18 178.44 79.95 182.22 83.73 C183.3 84.8 183.3 84.8 184.4 85.9 C186.43 87.93 188.47 89.95 190.51 91.98 C191.11 92.57 191.71 93.17 192.32 93.78 C195.45 96.88 198.62 99.74 202.12 102.42 C204 103.92 204 103.92 205.12 105.42 C204.69 108.71 203.56 110.36 201.23 112.66 C200.62 113.27 200.01 113.87 199.38 114.5 C198.72 115.14 198.06 115.79 197.38 116.45 C196.71 117.13 196.03 117.8 195.33 118.49 C193.16 120.64 190.99 122.78 188.81 124.92 C187.35 126.36 185.9 127.8 184.44 129.25 C181.19 132.47 177.93 135.69 174.66 138.9 C173.38 140.17 172.12 141.46 170.86 142.76 C166.45 146.98 161.11 148.3 155.18 148.55 C142.18 148.04 135.2 141.91 126.62 132.8 C122.52 128.36 118.6 123.82 114.82 119.12 C105.33 107.39 93.25 99.25 78 97.13 C73.71 96.68 69.43 96.49 65.12 96.42 C66.11 94.94 66.11 94.94 67.12 93.42 C67.12 92.43 67.12 91.44 67.12 90.42 C65.45 88.84 65.45 88.84 63.16 87.26 C54.94 80.91 47.82 73.41 40.5 66.07 C38.91 64.48 37.31 62.88 35.72 61.29 C32.4 57.98 29.08 54.66 25.77 51.33 C21.52 47.07 17.27 42.83 13.01 38.58 C9.73 35.3 6.45 32.02 3.17 28.74 C1.61 27.17 0.04 25.61 -1.53 24.04 C-3.72 21.86 -5.91 19.66 -8.09 17.47 C-9.06 16.51 -9.06 16.51 -10.05 15.52 C-13.22 12.32 -15.56 9.31 -17.88 5.42 C-18.87 5.09 -19.86 4.76 -20.88 4.42 C-22.07 2.36 -22.07 2.36 -22.88 0.42 C-16.06 -2.71 -6.98 -3.07 0 0 Z " fill="#00BCD3" transform="translate(603.87890625,463.578125)"/>
<path d="M0 0 C0.61 0.26 1.22 0.51 1.85 0.78 C13.86 6.57 23.49 18.93 32.76 28.25 C35.3 30.8 37.85 33.36 40.4 35.92 C45.81 41.34 51.22 46.76 56.62 52.19 C62.9 58.49 69.18 64.78 75.46 71.08 C77.96 73.59 80.46 76.1 82.96 78.61 C84.5 80.16 86.05 81.7 87.59 83.25 C88.28 83.94 88.96 84.63 89.67 85.34 C93.54 89.21 97.51 92.89 101.69 96.42 C104.6 99.06 107.02 102.02 109.5 105.06 C104.13 117.94 89.58 129.9 77.5 136.06 C76.91 136.41 76.31 136.76 75.7 137.11 C70.08 139.54 63.29 139.46 57.56 137.35 C43.24 130.54 31.18 117.62 21.97 104.98 C19.53 101.8 16.73 99 13.88 96.19 C13.32 95.62 12.76 95.05 12.18 94.47 C9.42 91.73 7.09 89.66 3.5 88.06 C3.17 87.4 2.84 86.74 2.5 86.06 C-0.15 84.32 -2.79 82.93 -5.69 81.62 C-8.86 79.86 -8.97 79.15 -10.5 76.06 C-12.11 74.41 -12.11 74.41 -14.03 72.88 C-21.78 66.31 -28.99 59.15 -36.25 52.05 C-38.13 50.22 -40.02 48.4 -41.93 46.6 C-44.69 43.97 -47.41 41.31 -50.13 38.64 C-50.98 37.84 -51.84 37.05 -52.72 36.23 C-58.35 30.58 -58.35 30.58 -58.79 26.12 C-58.54 23.36 -58.09 20.77 -57.5 18.06 C-57.5 17.07 -57.5 16.08 -57.5 15.06 C-44.26 -1.77 -19.7 -8.36 0 0 Z " fill="#00BCD3" transform="translate(608.5,358.9375)"/>
<path d="M0 0 C4.29 -0.06 8.58 -0.09 12.88 -0.12 C14.1 -0.14 15.32 -0.16 16.58 -0.18 C17.75 -0.18 18.92 -0.19 20.12 -0.2 C21.2 -0.21 22.27 -0.22 23.39 -0.23 C26 0 26 0 28 2 C28.24 4.06 28.24 4.06 28.23 6.63 C28.23 7.59 28.23 8.55 28.23 9.54 C28.22 10.58 28.21 11.62 28.2 12.7 C28.19 13.76 28.19 14.82 28.19 15.92 C28.18 19.32 28.15 22.72 28.12 26.12 C28.11 28.43 28.11 30.73 28.1 33.04 C28.08 38.69 28.04 44.35 28 50 C32.29 50 36.58 50 41 50 C41.33 33.5 41.66 17 42 0 C48.37 -0.03 48.37 -0.03 54.88 -0.06 C56.88 -0.08 56.88 -0.08 58.93 -0.09 C60.51 -0.09 60.51 -0.09 62.12 -0.1 C63.74 -0.11 63.74 -0.11 65.39 -0.11 C68 0 68 0 70 1 C70 47.86 70 94.72 70 143 C61.09 143 52.18 143 43 143 C41.66 140.31 41.85 138.2 41.81 135.19 C41.79 133.97 41.78 132.75 41.76 131.5 C41.75 130.85 41.75 130.19 41.74 129.52 C41.72 127.48 41.69 125.45 41.66 123.41 C41.59 118.35 41.53 113.29 41.47 108.23 C41.42 103.95 41.37 99.68 41.31 95.4 C41.28 93.39 41.26 91.38 41.24 89.36 C41.22 88.15 41.21 86.93 41.19 85.68 C41.18 84.61 41.16 83.53 41.15 82.42 C41.27 80.05 41.27 80.05 40 79 C36.37 79 32.74 79 29 79 C28.67 100.12 28.34 121.24 28 143 C19.09 143 10.18 143 1 143 C-1 141 -1 141 -1.25 138.63 C-1.25 137.62 -1.25 136.62 -1.25 135.59 C-1.25 134.44 -1.26 133.29 -1.26 132.1 C-1.25 130.83 -1.25 129.57 -1.24 128.26 C-1.24 126.92 -1.25 125.57 -1.25 124.23 C-1.25 120.57 -1.25 116.92 -1.24 113.26 C-1.23 109.44 -1.23 105.62 -1.23 101.8 C-1.23 95.38 -1.22 88.96 -1.21 82.54 C-1.19 75.11 -1.18 67.69 -1.19 60.26 C-1.19 53.13 -1.18 45.99 -1.17 38.85 C-1.17 35.81 -1.17 32.77 -1.17 29.73 C-1.17 26.15 -1.16 22.57 -1.15 18.99 C-1.15 17.05 -1.15 15.11 -1.15 13.17 C-1.14 12.01 -1.14 10.86 -1.13 9.67 C-1.13 8.16 -1.13 8.16 -1.13 6.63 C-1.01 4.26 -0.68 2.26 0 0 Z " fill="#D6D7D9" transform="translate(794,773)"/>
<path d="M0 0 C6.01 3.98 10.65 9.58 15.3 15.03 C22.03 22.86 30.54 31.15 41.38 32.24 C51.11 32.5 57.59 29.86 64.69 23.26 C65.45 22.51 66.22 21.77 67 21 C67.76 20.26 67.76 20.26 68.53 19.51 C75.93 12.36 75.93 12.36 82.76 4.68 C86.24 0.52 89.45 -0.14 94.69 -0.69 C101.11 -0.51 104.29 3.01 108.55 7.48 C110.76 9.79 113.02 12.03 115.28 14.29 C116.51 15.51 117.73 16.74 118.95 17.97 C122.04 21.09 125.15 24.1 128.5 26.94 C134.92 32.41 140.29 38.22 141.56 46.81 C141 57.31 129.55 65.94 122.6 72.85 C120.62 74.81 118.67 76.8 116.72 78.78 C115.45 80.05 114.18 81.32 112.91 82.58 C112.34 83.17 111.77 83.75 111.17 84.36 C106.35 89.1 101.32 92.46 94.56 93.56 C83.47 91.81 76.33 82.97 69.44 74.81 C63.24 67.61 56.53 63.08 46.94 62.19 C37.79 61.61 29.24 63.17 22 69 C21.67 68.34 21.34 67.68 21 67 C19.98 66.63 19.98 66.63 18.94 66.25 C11.45 63.07 5.67 56.97 0.04 51.27 C-0.68 50.55 -1.4 49.83 -2.14 49.09 C-3.65 47.58 -5.15 46.07 -6.65 44.56 C-8.95 42.24 -11.26 39.92 -13.57 37.61 C-15.04 36.14 -16.5 34.67 -17.96 33.2 C-18.66 32.51 -19.35 31.82 -20.06 31.1 C-21.01 30.14 -21.01 30.14 -21.98 29.16 C-22.54 28.6 -23.1 28.03 -23.68 27.45 C-26.62 24.22 -26.08 21.21 -26 17 C-26 16.67 -26 16.34 -26 16 C-26 13 -26 13 -24.02 10.62 C-23.15 9.76 -22.28 8.89 -21.38 8 C-20.52 7.13 -19.66 6.27 -18.77 5.38 C-13.14 0.56 -7.33 -1.86 0 0 Z " fill="#00E6EE" transform="translate(731,358)"/>
<path d="M0 0 C-0.18 0.74 -0.37 1.48 -0.56 2.24 C-1.4 7.01 -1.88 10.5 0.63 14.79 C3.15 17.65 5.82 20.28 8.61 22.88 C9.61 23.85 10.61 24.84 11.61 25.82 C14.23 28.39 16.89 30.93 19.56 33.45 C22.26 36.02 24.93 38.63 27.6 41.24 C32.31 45.82 37.04 50.37 41.8 54.89 C47.85 60.69 47.85 60.69 49 63 C49.72 63.29 50.44 63.58 51.19 63.88 C54.46 65.18 57.12 66.99 60 69 C58 70 58 70 56.21 69.44 C55.09 69.01 55.09 69.01 53.94 68.56 C42.48 64.96 28.72 65.85 17.91 71 C7.7 76.85 -0.6 86.43 -8.86 94.66 C-9.36 95.15 -9.85 95.64 -10.35 96.14 C-12.95 98.72 -15.54 101.31 -18.13 103.89 C-20.79 106.54 -23.45 109.18 -26.11 111.82 C-28.19 113.87 -30.25 115.93 -32.31 117.99 C-33.29 118.97 -34.27 119.94 -35.26 120.91 C-40.68 126.27 -45.28 131.33 -49 138 C-49.33 137.34 -49.66 136.68 -50 136 C-51.02 135.66 -51.02 135.66 -52.06 135.31 C-60.82 131.4 -67.92 122.3 -74.66 115.58 C-76.45 113.8 -78.26 112.03 -80.06 110.25 C-81.21 109.11 -82.35 107.97 -83.5 106.83 C-84.03 106.31 -84.57 105.78 -85.13 105.24 C-89.65 100.69 -89.65 100.69 -90 97 C-91.32 96.67 -92.64 96.34 -94 96 C-94 95.34 -94 94.68 -94 94 C-94.66 94 -95.32 94 -96 94 C-94.73 91.22 -93.43 89.18 -91.27 87.02 C-90.71 86.46 -90.16 85.9 -89.59 85.33 C-88.98 84.73 -88.37 84.13 -87.75 83.51 C-87.11 82.86 -86.47 82.22 -85.81 81.56 C-83.69 79.43 -81.56 77.32 -79.43 75.2 C-77.95 73.72 -76.47 72.24 -74.99 70.76 C-71.88 67.66 -68.77 64.56 -65.66 61.46 C-61.69 57.5 -57.72 53.54 -53.76 49.57 C-50.7 46.52 -47.64 43.46 -44.58 40.4 C-43.12 38.95 -41.65 37.49 -40.19 36.03 C-38.14 33.98 -36.08 31.93 -34.03 29.88 C-33.43 29.29 -32.84 28.69 -32.23 28.08 C-28.52 24.4 -24.69 20.92 -20.73 17.51 C-18.66 15.7 -16.73 13.8 -14.82 11.82 C-13.8 10.77 -13.8 10.77 -12.76 9.7 C-11.35 8.25 -9.96 6.8 -8.56 5.35 C-7.55 4.31 -7.55 4.31 -6.51 3.25 C-5.61 2.32 -5.61 2.32 -4.68 1.36 C-3 0 -3 0 0 0 Z " fill="#00ACC9" transform="translate(552,376)"/>
<path d="M0 0 C4.29 -0.03 8.58 -0.05 12.88 -0.06 C14.71 -0.08 14.71 -0.08 16.58 -0.09 C18.33 -0.09 18.33 -0.09 20.12 -0.1 C21.74 -0.11 21.74 -0.11 23.39 -0.11 C26 0 26 0 28 1 C28.33 15.85 28.66 30.7 29 46 C30.5 43 31.38 40.95 32.13 37.8 C32.42 36.57 32.42 36.57 32.73 35.32 C32.93 34.45 33.14 33.58 33.35 32.68 C33.56 31.77 33.78 30.87 34 29.94 C34.7 27.07 35.38 24.19 36.06 21.31 C36.75 18.42 37.44 15.54 38.13 12.65 C38.56 10.86 38.99 9.06 39.41 7.26 C40.89 1.11 40.89 1.11 42 0 C43.9 -0.1 45.81 -0.13 47.71 -0.13 C48.88 -0.13 50.04 -0.14 51.23 -0.14 C52.46 -0.13 53.68 -0.13 54.94 -0.12 C56.16 -0.13 57.38 -0.13 58.63 -0.14 C60.37 -0.13 60.37 -0.13 62.15 -0.13 C63.22 -0.13 64.3 -0.13 65.4 -0.13 C68 0 68 0 70 1 C68.42 9.66 66.51 18.18 64.3 26.7 C63.94 28.11 63.94 28.11 63.57 29.54 C62.57 33.43 61.56 37.31 60.53 41.2 C59.78 44.07 59.04 46.95 58.3 49.83 C58.07 50.69 57.84 51.55 57.6 52.43 C54.61 64.24 56.4 74.15 59.46 85.79 C59.82 87.19 60.18 88.59 60.53 89.99 C61.46 93.65 62.41 97.3 63.36 100.96 C64.88 106.81 66.38 112.67 67.87 118.53 C68.39 120.56 68.92 122.59 69.45 124.62 C71.02 130.75 72.44 136.69 73 143 C69.05 143.05 65.1 143.09 61.15 143.11 C59.14 143.12 57.13 143.15 55.13 143.18 C53.87 143.18 52.62 143.19 51.32 143.2 C50.16 143.21 49 143.22 47.8 143.23 C45 143 45 143 43 141 C42.32 138.83 42.32 138.83 41.7 136.11 C41.47 135.09 41.24 134.07 41 133.02 C40.75 131.92 40.5 130.81 40.25 129.68 C39.99 128.54 39.73 127.41 39.47 126.24 C38.64 122.6 37.82 118.95 37 115.31 C36.18 111.69 35.36 108.06 34.53 104.44 C34.02 102.18 33.51 99.93 33 97.67 C32.65 96.12 32.65 96.12 32.3 94.54 C32.09 93.63 31.89 92.73 31.68 91.8 C30.88 88.51 29.93 85.26 29 82 C28.67 102.13 28.34 122.26 28 143 C19.09 143 10.18 143 1 143 C-0.32 140.35 -0.12 138.37 -0.12 135.41 C-0.12 134.22 -0.12 133.03 -0.12 131.8 C-0.12 130.49 -0.12 129.18 -0.11 127.83 C-0.11 126.44 -0.11 125.05 -0.11 123.66 C-0.11 119.88 -0.11 116.1 -0.1 112.33 C-0.1 108.38 -0.09 104.43 -0.09 100.49 C-0.09 93.01 -0.08 85.53 -0.07 78.06 C-0.06 69.55 -0.06 61.04 -0.05 52.53 C-0.04 35.02 -0.02 17.51 0 0 Z " fill="#D7D8DA" transform="translate(415,773)"/>
<path d="M0 0 C6.88 6.53 12.65 13.6 18.1 21.36 C14.3 25.89 10.38 30.22 6.18 34.39 C5.63 34.94 5.07 35.5 4.5 36.07 C2.68 37.89 0.86 39.7 -0.96 41.51 C-2.23 42.78 -3.5 44.05 -4.77 45.32 C-8.09 48.63 -11.41 51.95 -14.74 55.26 C-18.14 58.65 -21.54 62.05 -24.93 65.44 C-31.59 72.08 -38.24 78.72 -44.9 85.36 C-45.56 84.37 -46.22 83.38 -46.9 82.36 C-48.54 80.67 -50.22 79.01 -51.9 77.36 C-53.01 76.27 -54.11 75.18 -55.22 74.09 C-55.82 73.5 -56.42 72.91 -57.04 72.3 C-59.76 69.61 -62.48 66.92 -65.19 64.23 C-66.62 62.82 -68.05 61.41 -69.48 60.01 C-71.56 57.96 -73.64 55.9 -75.71 53.84 C-76.34 53.23 -76.97 52.61 -77.62 51.98 C-82.09 47.51 -85.57 42.72 -88.9 37.36 C-88.21 36.9 -87.52 36.44 -86.81 35.96 C-79.82 31.11 -74.36 25.85 -68.9 19.36 C-67.68 17.96 -66.45 16.57 -65.21 15.17 C-63.62 13.37 -62.06 11.57 -60.59 9.66 C-53.31 0.39 -43.33 -6.73 -31.9 -9.64 C-30.79 -9.93 -29.67 -10.22 -28.53 -10.52 C-16.48 -10.93 -8.77 -7.98 0 0 Z " fill="#0093B9" transform="translate(699.90234375,584.640625)"/>
<path d="M0 0 C7.79 -0.05 15.58 -0.08 23.37 -0.1 C26.98 -0.11 30.6 -0.13 34.21 -0.15 C37.7 -0.17 41.19 -0.18 44.68 -0.19 C46.66 -0.2 48.64 -0.21 50.63 -0.23 C51.83 -0.23 53.03 -0.23 54.27 -0.23 C55.33 -0.23 56.39 -0.24 57.48 -0.24 C60 0 60 0 62 2 C62.23 4.52 62.23 4.52 62.2 7.66 C62.19 8.79 62.18 9.91 62.18 11.06 C62.16 12.24 62.14 13.41 62.12 14.62 C62.12 15.81 62.11 16.99 62.1 18.21 C62.07 21.14 62.04 24.07 62 27 C53.59 27.5 53.59 27.5 45 28 C45 29.43 45 30.85 45.01 32.32 C45.03 45.73 45.04 59.13 45.05 72.54 C45.06 79.43 45.06 86.33 45.08 93.22 C45.09 99.86 45.09 106.51 45.09 113.16 C45.1 115.7 45.1 118.24 45.11 120.78 C45.11 124.33 45.11 127.88 45.11 131.42 C45.12 132.48 45.12 133.55 45.12 134.64 C45.12 135.6 45.12 136.56 45.12 137.55 C45.12 138.39 45.12 139.23 45.12 140.1 C45 142 45 142 44 143 C39.69 143.25 35.38 143.19 31.06 143.19 C29.84 143.2 28.62 143.21 27.37 143.22 C25.63 143.23 25.63 143.23 23.85 143.23 C22.78 143.23 21.7 143.24 20.6 143.24 C18 143 18 143 16 141 C15.74 139.01 15.74 139.01 15.73 136.51 C15.72 135.57 15.71 134.63 15.7 133.65 C15.7 132.62 15.7 131.58 15.7 130.51 C15.69 129.42 15.68 128.33 15.67 127.2 C15.65 123.58 15.63 119.96 15.62 116.34 C15.6 113.83 15.59 111.33 15.57 108.82 C15.53 102.89 15.5 96.96 15.47 91.03 C15.41 79.77 15.35 68.52 15.27 57.26 C15.25 53.55 15.23 49.85 15.21 46.14 C15.2 43.88 15.19 41.62 15.17 39.36 C15.17 38.32 15.17 37.28 15.17 36.21 C15.16 35.27 15.15 34.33 15.14 33.36 C15.14 32.54 15.14 31.71 15.13 30.87 C15.2 28.99 15.2 28.99 14 28 C11.67 27.79 9.34 27.63 7 27.5 C0.11 27.11 0.11 27.11 -1 26 C-1.1 24.24 -1.13 22.48 -1.13 20.72 C-1.13 19.65 -1.14 18.58 -1.14 17.48 C-1.13 16.35 -1.13 15.22 -1.12 14.06 C-1.13 12.94 -1.13 11.82 -1.14 10.66 C-1.14 9.59 -1.13 8.51 -1.13 7.41 C-1.13 6.42 -1.13 5.43 -1.13 4.41 C-1 2 -1 2 0 0 Z " fill="#D6D7D9" transform="translate(704,773)"/>
<path d="M0 0 C7.21 4.83 13.07 11.99 18.43 18.73 C30.38 33.67 45.8 49.74 65.52 52.98 C70.18 53.41 74.62 53.65 79.25 52.86 C82.12 52.42 82.12 52.42 85.12 54.42 C84.46 54.42 83.8 54.42 83.12 54.42 C84.88 61.69 87.82 65.99 93.11 71.17 C93.82 71.89 94.53 72.61 95.26 73.34 C97.58 75.69 99.93 78.02 102.29 80.35 C103.92 81.98 105.55 83.62 107.18 85.26 C110.6 88.68 114.03 92.09 117.47 95.5 C121.86 99.85 126.23 104.23 130.59 108.61 C133.96 112 137.34 115.37 140.72 118.73 C142.34 120.34 143.95 121.95 145.56 123.57 C147.81 125.83 150.08 128.08 152.35 130.32 C153.01 130.98 153.66 131.64 154.34 132.33 C158.58 136.46 163.2 140.14 169.12 141.42 C170.11 140.76 171.1 140.1 172.12 139.42 C172.12 140.41 172.12 141.4 172.12 142.42 C170.73 143.24 169.33 144.05 167.93 144.86 C167.16 145.31 166.38 145.76 165.58 146.23 C159.07 149.39 152.06 148.77 145.12 147.42 C132.58 142.59 123.01 129.32 114.82 119.12 C105.33 107.39 93.25 99.25 78 97.13 C73.71 96.68 69.43 96.49 65.12 96.42 C66.11 94.94 66.11 94.94 67.12 93.42 C67.12 92.43 67.12 91.44 67.12 90.42 C65.45 88.84 65.45 88.84 63.16 87.26 C54.94 80.91 47.82 73.41 40.5 66.07 C38.91 64.48 37.31 62.88 35.72 61.29 C32.4 57.98 29.08 54.66 25.77 51.33 C21.52 47.07 17.27 42.83 13.01 38.58 C9.73 35.3 6.45 32.02 3.17 28.74 C1.61 27.17 0.04 25.61 -1.53 24.04 C-3.72 21.86 -5.91 19.66 -8.09 17.47 C-9.06 16.51 -9.06 16.51 -10.05 15.52 C-13.22 12.32 -15.56 9.31 -17.88 5.42 C-18.87 5.09 -19.86 4.76 -20.88 4.42 C-22.07 2.36 -22.07 2.36 -22.88 0.42 C-16.06 -2.71 -6.98 -3.07 0 0 Z " fill="#00ABC8" transform="translate(603.87890625,463.578125)"/>
<path d="M0 0 C0.66 0.33 1.32 0.66 2 1 C2 1.33 2 1.66 2 2 C3.13 1.63 4.27 1.26 5.44 0.88 C7.69 0.61 7.69 0.61 10 1 C11.89 2.67 11.89 2.67 13.85 5.06 C17.72 9.58 21.74 13.86 25.94 18.07 C26.58 18.71 27.21 19.35 27.87 20 C29.91 22.05 31.95 24.09 33.99 26.12 C35.43 27.56 36.87 29 38.3 30.44 C41.3 33.43 44.29 36.43 47.29 39.42 C51.13 43.25 54.96 47.09 58.8 50.93 C61.75 53.89 64.71 56.85 67.67 59.81 C69.09 61.22 70.51 62.64 71.92 64.06 C73.89 66.03 75.86 68 77.84 69.96 C78.42 70.55 79 71.13 79.6 71.74 C81.98 74.1 84.2 76.14 87 78 C87.95 81.11 87.78 83.86 87 87 C82.59 93.5 76.01 98.01 68.33 99.53 C57.85 100.81 51.28 98.36 43 92 C38.72 88.15 34.66 84.11 30.6 80.03 C29.43 78.87 28.26 77.7 27.09 76.54 C24.65 74.11 22.22 71.67 19.79 69.23 C16.68 66.11 13.56 63.01 10.43 59.91 C8.01 57.52 5.61 55.11 3.2 52.7 C2.06 51.55 0.91 50.41 -0.25 49.27 C-1.86 47.67 -3.46 46.06 -5.05 44.45 C-5.96 43.54 -6.87 42.63 -7.81 41.69 C-13.36 34.87 -12.7 26.36 -12 18 C-10.2 10.57 -5.29 5.29 0 0 Z " fill="#008AB2" transform="translate(529,512)"/>
<path d="M0 0 C4.12 -0.03 8.25 -0.05 12.38 -0.06 C14.14 -0.08 14.14 -0.08 15.94 -0.09 C17.62 -0.09 17.62 -0.09 19.34 -0.1 C20.89 -0.11 20.89 -0.11 22.48 -0.11 C25 0 25 0 27 1 C27 2.05 27 2.05 27 3.13 C26.98 20.21 26.96 37.3 26.95 54.38 C26.94 62.64 26.94 70.9 26.92 79.17 C26.91 86.37 26.91 93.57 26.91 100.77 C26.9 104.58 26.9 108.39 26.89 112.21 C26.89 115.79 26.89 119.38 26.89 122.97 C26.89 124.92 26.88 126.86 26.88 128.81 C26.88 129.97 26.88 131.12 26.88 132.32 C26.88 133.83 26.88 133.83 26.88 135.37 C26.99 137.74 27.42 139.71 28 142 C27 143 27 143 24.5 143.11 C23.42 143.11 22.33 143.1 21.21 143.1 C20.05 143.09 18.88 143.09 17.67 143.09 C16.44 143.08 15.21 143.07 13.94 143.06 C12.08 143.06 12.08 143.06 10.19 143.05 C7.13 143.04 4.06 143.02 1 143 C-0.32 140.35 -0.12 138.37 -0.12 135.41 C-0.12 134.22 -0.12 133.03 -0.12 131.8 C-0.12 130.49 -0.12 129.18 -0.11 127.83 C-0.11 126.44 -0.11 125.05 -0.11 123.66 C-0.11 119.88 -0.11 116.1 -0.1 112.33 C-0.1 108.38 -0.09 104.43 -0.09 100.49 C-0.09 93.01 -0.08 85.53 -0.07 78.06 C-0.06 69.55 -0.06 61.04 -0.05 52.53 C-0.04 35.02 -0.02 17.51 0 0 Z " fill="#D6D7D9" transform="translate(650,773)"/>
<path d="M0 0 C3.27 2.09 5.88 4.68 8.55 7.48 C10.76 9.79 13.02 12.03 15.28 14.29 C16.51 15.51 17.73 16.74 18.95 17.97 C22.04 21.09 25.15 24.1 28.5 26.94 C34.92 32.41 40.29 38.22 41.56 46.81 C41 57.64 28.84 66.5 21.62 73.56 C20.4 74.77 19.17 75.98 17.95 77.2 C14.97 80.14 11.99 83.07 9 86 C9 85.01 9 84.02 9 83 C8.67 80.09 8.42 78.47 6.45 76.26 C5.79 75.74 5.14 75.23 4.46 74.69 C-2.59 68.88 -8.96 62.38 -15.45 55.96 C-17.07 54.36 -18.7 52.76 -20.33 51.17 C-22.71 48.86 -25.07 46.53 -27.43 44.19 C-28.16 43.49 -28.89 42.79 -29.64 42.06 C-34.93 36.76 -37 32.65 -37 25 C-35.52 23.19 -35.52 23.19 -33.46 21.2 C-32.71 20.47 -31.97 19.74 -31.2 18.99 C-30.02 17.85 -30.02 17.85 -28.81 16.69 C-22.71 10.84 -22.71 10.84 -17.09 4.54 C-12.83 -0.65 -6.38 -1.47 0 0 Z " fill="#00F9FB" transform="translate(831,358)"/>
<path d="M0 0 C0 0.66 0 1.32 0 2 C0.93 2.31 0.93 2.31 1.88 2.62 C4.84 4.54 4.9 6.69 6 10 C7.63 11.71 9.3 13.37 11 15 C12.32 16.39 13.63 17.78 14.94 19.17 C16.95 21.31 18.99 23.41 21.03 25.52 C22.09 26.63 23.14 27.75 24.19 28.87 C30.14 35.24 34.88 40.18 44.03 40.98 C45 40.99 45 40.99 46 41 C41.98 45.84 37.75 50.35 33.25 54.75 C31.97 56.01 30.69 57.27 29.41 58.53 C27.42 60.49 25.43 62.44 23.44 64.39 C21.49 66.29 19.56 68.21 17.62 70.12 C17.03 70.69 16.44 71.26 15.83 71.85 C11.81 75.85 8.81 80.07 6 85 C5.67 84.34 5.34 83.68 5 83 C4.32 82.77 3.64 82.55 2.94 82.31 C-5.82 78.4 -12.92 69.3 -19.66 62.58 C-21.45 60.8 -23.26 59.03 -25.06 57.25 C-26.21 56.11 -27.35 54.97 -28.5 53.83 C-29.03 53.31 -29.57 52.78 -30.13 52.24 C-34.65 47.69 -34.65 47.69 -35 44 C-36.32 43.67 -37.64 43.34 -39 43 C-39 42.34 -39 41.68 -39 41 C-39.66 41 -40.32 41 -41 41 C-39.58 37.79 -37.88 35.63 -35.41 33.15 C-34.67 32.41 -33.94 31.67 -33.18 30.91 C-32.39 30.12 -31.6 29.33 -30.78 28.52 C-29.56 27.29 -29.56 27.29 -28.32 26.04 C-26.6 24.32 -24.87 22.61 -23.15 20.89 C-20.5 18.25 -17.87 15.61 -15.23 12.96 C-13.56 11.29 -11.89 9.62 -10.22 7.95 C-9.03 6.76 -9.03 6.76 -7.82 5.54 C-7.08 4.81 -6.35 4.08 -5.59 3.33 C-4.94 2.69 -4.3 2.04 -3.63 1.38 C-2 0 -2 0 0 0 Z " fill="#0093B9" transform="translate(497,429)"/>
<path d="M0 0 C6.68 1.23 9.92 4.26 14.55 9.08 C15.27 9.81 15.99 10.54 16.73 11.29 C18.29 12.87 19.84 14.45 21.39 16.04 C23.83 18.56 26.3 21.06 28.77 23.55 C34.89 29.75 40.99 35.98 47.09 42.21 C52.25 47.48 57.41 52.74 62.6 57.97 C65.02 60.43 67.43 62.91 69.84 65.39 C71.33 66.9 72.82 68.41 74.32 69.92 C74.98 70.61 75.64 71.3 76.32 72.01 C80.76 76.44 83.9 77.73 90 79 C90.33 79.99 90.66 80.98 91 82 C90.55 82.37 90.1 82.73 89.64 83.11 C81.2 90.21 74 98.51 67 107 C65 104 65 104 65.1 101.52 C65.26 98.93 65.26 98.93 63.5 97.22 C62.82 96.69 62.14 96.16 61.44 95.62 C57.37 92.31 53.66 88.8 49.96 85.09 C49.3 84.44 48.65 83.78 47.98 83.11 C45.85 80.99 43.72 78.86 41.6 76.73 C40.11 75.24 38.62 73.76 37.13 72.27 C34.03 69.17 30.93 66.06 27.83 62.96 C23.85 58.97 19.86 54.99 15.87 51.01 C12.81 47.95 9.74 44.88 6.68 41.81 C5.21 40.34 3.74 38.87 2.27 37.41 C0.22 35.36 -1.82 33.31 -3.86 31.27 C-4.78 30.35 -4.78 30.35 -5.71 29.42 C-9.89 25.23 -9.89 25.23 -11 23 C-15.95 23.5 -15.95 23.5 -21 24 C-19.62 19.83 -17.77 17.42 -14.65 14.36 C-13.37 13.09 -13.37 13.09 -12.07 11.81 C-11.18 10.94 -10.29 10.08 -9.38 9.19 C-8.48 8.3 -7.58 7.42 -6.66 6.51 C-4.44 4.33 -2.23 2.16 0 0 Z " fill="#0093B9" transform="translate(550,491)"/>
<path d="M0 0 C3 1 3 1 4 3 C4.99 3.33 5.98 3.66 7 4 C7.96 5.41 8.91 6.83 9.81 8.28 C12 11.45 14.77 14.08 17.49 16.79 C18.42 17.73 18.42 17.73 19.37 18.69 C20.68 20 21.99 21.31 23.31 22.62 C25.3 24.62 27.29 26.62 29.27 28.63 C30.55 29.91 31.83 31.2 33.11 32.48 C33.7 33.07 34.28 33.67 34.89 34.28 C38.64 37.99 42.31 40.57 47 43 C46.57 46.55 46.05 49.85 44.98 53.27 C42.12 64.12 43.47 75.81 48 86 C49.53 88.46 51.11 90.75 52.93 93 C54.36 95.67 53.84 97.16 53 100 C47.58 99.69 45.03 96.59 41.42 92.92 C40.78 92.29 40.14 91.65 39.48 91 C37.37 88.9 35.28 86.79 33.18 84.68 C31.71 83.21 30.25 81.75 28.78 80.28 C25.71 77.21 22.65 74.14 19.59 71.06 C15.67 67.11 11.74 63.18 7.8 59.26 C4.77 56.24 1.75 53.21 -1.27 50.17 C-2.71 48.72 -4.16 47.27 -5.61 45.83 C-7.64 43.8 -9.66 41.76 -11.68 39.72 C-12.28 39.13 -12.88 38.54 -13.49 37.92 C-16.85 34.51 -18.96 31.39 -21 27 C-21.66 26.67 -22.32 26.34 -23 26 C-22.51 21.73 -20.07 19.73 -17.09 16.8 C-16.6 16.31 -16.12 15.83 -15.61 15.33 C-14.06 13.8 -12.5 12.27 -10.94 10.75 C-9.88 9.71 -8.83 8.67 -7.77 7.62 C-5.19 5.08 -2.6 2.54 0 0 Z " fill="#007FAB" transform="translate(455,469)"/>
<path d="M0 0 C3 1.08 3 1.08 6.44 2.81 C13.96 6.55 19.31 7.21 27.62 7.25 C29.05 7.28 29.05 7.28 30.5 7.31 C37.15 7.35 42.75 6.26 49 4 C50.27 5.49 50.27 5.49 51.56 7 C52.12 7.65 52.68 8.3 53.26 8.97 C54.32 10.21 55.38 11.45 56.42 12.69 C62.13 19.38 68.39 25.5 74.62 31.69 C75.76 32.81 76.89 33.94 78.02 35.06 C80.09 37.13 82.17 39.2 84.25 41.26 C85.16 42.17 86.06 43.07 87 44 C88.45 45.26 88.45 45.26 89.92 46.54 C92 49 92 49 92.15 51.45 C90.61 54.87 88.32 57.18 85.65 59.74 C85.12 60.26 84.59 60.79 84.04 61.33 C82.35 63 80.64 64.66 78.94 66.31 C77.78 67.45 76.63 68.58 75.48 69.71 C72.67 72.49 69.84 75.25 67 78 C66.77 77.44 66.55 76.89 66.31 76.31 C64.63 73.34 62.45 71.39 60 69 C59.02 68.03 58.03 67.05 57.05 66.08 C55.95 64.99 54.86 63.91 53.76 62.82 C47.63 56.75 41.5 50.68 35.39 44.6 C31.7 40.92 28 37.25 24.29 33.59 C20.7 30.04 17.11 26.48 13.54 22.91 C12.17 21.56 10.81 20.21 9.44 18.86 C7.52 16.97 5.62 15.08 3.73 13.18 C3.16 12.63 2.59 12.07 2 11.5 C-0.99 8.47 -2.71 6.32 -3 2 C-2.01 1.34 -1.02 0.68 0 0 Z " fill="#007FAB" transform="translate(562,618)"/>
<path d="M0 0 C10.98 2.03 19.95 14.08 26.52 22.36 C28.99 26.05 30.19 28.72 29.99 33.28 C28.29 40.78 19.87 47.5 14.71 52.8 C13.95 53.61 13.19 54.43 12.42 55.27 C8.86 58.9 6.03 61.77 0.88 62.58 C-6.3 62.64 -10.18 59.84 -15.22 55.05 C-16.9 53.35 -18.57 51.64 -20.23 49.92 C-21.51 48.64 -21.51 48.64 -22.81 47.32 C-32.26 37.69 -32.26 37.69 -32.88 33.96 C-32.87 33.12 -32.86 32.29 -32.86 31.42 C-32.86 30.59 -32.87 29.76 -32.88 28.9 C-30.95 16.62 -12.58 -0.47 0 0 Z " fill="#00FAFC" transform="translate(824.4814453125,232.638671875)"/>
<path d="M0 0 C0.66 0.33 1.32 0.66 2 1 C1.59 2.03 1.17 3.06 0.75 4.12 C-0.41 7.94 -0.41 7.94 1.5 10.77 C4.36 14.71 7.81 18.09 11.25 21.52 C11.95 22.21 12.64 22.91 13.36 23.63 C14.82 25.09 16.29 26.55 17.75 28.01 C20 30.25 22.23 32.5 24.47 34.74 C25.9 36.17 27.32 37.59 28.75 39.02 C29.42 39.69 30.08 40.36 30.77 41.05 C31.4 41.67 32.03 42.29 32.67 42.93 C33.49 43.75 33.49 43.75 34.33 44.59 C36.12 46.1 37.87 47.04 40 48 C39.34 48.64 38.68 49.28 38 49.95 C35.64 52.3 33.43 54.75 31.21 57.24 C29.79 58.79 28.36 60.33 26.94 61.88 C26.25 62.67 25.56 63.47 24.85 64.29 C21.88 67.44 19.48 69.61 15.24 70.73 C9.18 70.88 5.39 68.95 1.01 65.02 C-1.92 62.2 -4.68 59.24 -7.44 56.25 C-8.59 55.04 -9.75 53.84 -10.9 52.63 C-13.5 49.92 -16.07 47.19 -18.63 44.44 C-19.98 43.02 -21.38 41.67 -22.79 40.31 C-25.33 37.65 -25.94 35.48 -27 32 C-28.49 30.34 -28.49 30.34 -30 29 C-25.21 23.21 -20.05 17.87 -14.74 12.55 C-13.3 11.11 -11.87 9.66 -10.44 8.21 C-9.52 7.3 -8.61 6.39 -7.68 5.45 C-6.85 4.62 -6.02 3.79 -5.17 2.93 C-3 1 -3 1 0 0 Z " fill="#00A0C1" transform="translate(526,400)"/>
<path d="M0 0 C8.03 7.3 14.77 15.12 21 24 C16.04 30 10.65 35.46 5.12 40.94 C4.25 41.81 3.37 42.69 2.46 43.59 C0.31 45.73 -1.84 47.86 -4 50 C-4.33 49.34 -4.66 48.68 -5 48 C-4.67 47.01 -4.34 46.02 -4 45 C-4.67 44.81 -5.35 44.63 -6.04 44.43 C-10.26 42.39 -13.1 39.35 -16.38 36.05 C-17.08 35.36 -17.77 34.67 -18.49 33.96 C-19.96 32.5 -21.42 31.03 -22.88 29.56 C-25.11 27.33 -27.36 25.11 -29.61 22.89 C-31.03 21.47 -32.46 20.04 -33.88 18.61 C-34.89 17.63 -34.89 17.63 -35.91 16.62 C-40.74 11.72 -42.83 7.52 -45 1 C-31.72 -9.45 -13.34 -11.65 0 0 Z " fill="#00A0C1" transform="translate(697,582)"/>
<path d="M0 0 C3.33 0.9 3.85 2.05 5.63 5.11 C5.97 5.74 6.3 6.36 6.65 7.01 C8.49 10.11 10.94 12.54 13.48 15.08 C14.31 15.91 14.31 15.91 15.14 16.76 C16.3 17.93 17.46 19.09 18.62 20.24 C20.37 22 22.1 23.77 23.83 25.54 C29.92 31.7 35.48 36.79 43.76 39.88 C41.95 43.81 39.59 46.15 36.45 49.13 C32.06 53.37 28.69 57.53 25.76 62.88 C25.43 62.22 25.1 61.56 24.76 60.88 C24.08 60.66 23.4 60.43 22.7 60.2 C13.94 56.28 6.84 47.18 0.1 40.47 C-1.69 38.68 -3.5 36.91 -5.3 35.13 C-6.45 34 -7.59 32.86 -8.74 31.71 C-9.28 31.19 -9.82 30.66 -10.37 30.12 C-14.89 25.57 -14.89 25.57 -15.24 21.88 C-16.56 21.55 -17.88 21.22 -19.24 20.88 C-19.24 20.22 -19.24 19.56 -19.24 18.88 C-19.9 18.88 -20.56 18.88 -21.24 18.88 C-19.07 14.1 -15.72 10.76 -12.12 7.01 C-11.48 6.29 -10.84 5.58 -10.18 4.84 C-4.72 -0.81 -4.72 -0.81 0 0 Z " fill="#008AB2" transform="translate(477.2421875,451.1171875)"/>
<path d="M0 0 C2.9 2.04 4.75 3.46 6.26 6.72 C8.44 10.83 11.23 13.62 14.53 16.86 C15.48 17.81 15.48 17.81 16.45 18.77 C17.78 20.09 19.11 21.42 20.45 22.73 C22.5 24.75 24.54 26.78 26.57 28.81 C27.87 30.1 29.17 31.38 30.47 32.67 C31.08 33.28 31.69 33.88 32.32 34.51 C32.89 35.07 33.46 35.63 34.04 36.21 C34.54 36.7 35.04 37.19 35.56 37.7 C37.18 39.22 37.18 39.22 40 41 C40.14 46.81 39.68 50.9 35.62 55.26 C34.25 56.57 32.85 57.86 31.44 59.12 C30.73 59.8 30.02 60.47 29.28 61.16 C27.54 62.79 25.78 64.41 24 66 C23.34 65.01 22.68 64.02 22 63 C20.36 61.31 18.69 59.65 17 58 C15.89 56.91 14.79 55.82 13.68 54.73 C13.08 54.14 12.48 53.55 11.86 52.94 C9.14 50.26 6.42 47.56 3.71 44.87 C2.28 43.46 0.85 42.05 -0.58 40.65 C-2.66 38.6 -4.74 36.54 -6.81 34.48 C-7.44 33.87 -8.07 33.25 -8.72 32.62 C-13.19 28.15 -16.67 23.36 -20 18 C-19.31 17.54 -18.62 17.08 -17.91 16.6 C-10.95 11.77 -5.41 6.51 0 0 Z " fill="#008AB2" transform="translate(631,604)"/>
<path d="M0 0 C8.46 2.38 15.03 10.88 21.03 16.94 C21.79 17.7 22.55 18.46 23.33 19.24 C24.97 20.88 26.6 22.52 28.23 24.16 C30.82 26.76 33.41 29.36 36 31.95 C42.44 38.4 48.87 44.85 55.3 51.31 C60.74 56.77 66.18 62.23 71.63 67.69 C74.17 70.24 76.71 72.79 79.25 75.34 C80.82 76.92 82.4 78.49 83.97 80.06 C85.01 81.12 85.01 81.12 86.08 82.19 C89.98 86.09 93.98 89.8 98.19 93.36 C101.1 96 103.52 98.96 106 102 C105.19 103.94 105.19 103.94 104 106 C100.37 107.21 99.77 106.76 96.44 105.12 C90.43 101.96 85.82 97.72 81 93 C80.14 92.17 79.28 91.33 78.39 90.48 C74.64 86.79 70.99 83.06 67.56 79.06 C61.98 72.55 55.88 66.45 49.37 60.87 C44.77 56.86 40.46 52.6 36.15 48.29 C35.34 47.47 34.52 46.66 33.68 45.82 C31.97 44.1 30.26 42.39 28.55 40.68 C25.94 38.07 23.34 35.47 20.73 32.87 C19.06 31.2 17.39 29.52 15.71 27.85 C14.94 27.08 14.17 26.31 13.38 25.52 C0.49 12.58 0.49 12.58 -3 6 C-2.5 5.2 -2.01 4.39 -1.5 3.56 C0.08 1.35 0.08 1.35 0 0 Z " fill="#00CFE0" transform="translate(612,362)"/>
<path d="M0 0 C0.99 1.49 0.99 1.49 2 3 C2.66 2.34 3.32 1.68 4 1 C8.85 1.5 11.25 5.18 14.3 8.61 C20.75 15.66 27.38 22.51 34.13 29.27 C34.62 29.75 35.1 30.24 35.6 30.74 C38.09 33.23 40.59 35.72 43.08 38.21 C45.65 40.77 48.21 43.33 50.76 45.9 C52.76 47.9 54.76 49.9 56.76 51.9 C58.16 53.29 59.56 54.7 60.96 56.1 C61.81 56.95 62.66 57.79 63.54 58.67 C64.28 59.41 65.03 60.15 65.79 60.92 C68.01 63.08 68.01 63.08 70.7 65.07 C73.53 67.45 74.12 69.46 75 73 C73.29 75.28 72.25 75.95 69.44 76.56 C58.57 74.78 50.69 65.28 43.28 57.81 C42.09 56.62 40.9 55.44 39.71 54.25 C37.23 51.77 34.75 49.29 32.28 46.81 C29.13 43.62 25.95 40.46 22.77 37.3 C20.31 34.86 17.86 32.41 15.42 29.95 C14.25 28.78 13.08 27.62 11.91 26.45 C10.27 24.82 8.65 23.19 7.03 21.54 C6.1 20.62 5.18 19.69 4.22 18.73 C0.65 14.34 -0.28 10.2 -0.12 4.62 C-0.11 3.75 -0.09 2.88 -0.07 1.98 C-0.05 1.32 -0.02 0.67 0 0 Z " fill="#007FAB" transform="translate(517,535)"/>
<path d="M0 0 C5.16 4.55 8.81 8.75 9.5 15.62 C9.33 21.64 6.87 26.21 2.56 30.31 C-2.33 33.45 -7.23 33.59 -12.88 32.88 C-17.56 31.19 -20.97 28.8 -24.44 25.25 C-26.95 19.36 -26.76 13.54 -24.75 7.5 C-18.85 -0.76 -9.66 -3.78 0 0 Z " fill="#00FAFC" transform="translate(752.875,986.125)"/>
<path d="M0 0 C4.78 4.66 7.84 8.77 8.06 15.62 C7.74 21.23 6.31 24.89 2.12 28.75 C-3.15 32.35 -7.08 33.35 -13.44 32.5 C-18.78 30.74 -22.85 27.85 -26.44 23.5 C-28.49 18.76 -27.86 13.19 -26.31 8.38 C-24.57 4.1 -22.21 2.1 -18.44 -0.5 C-12.47 -2.49 -5.77 -2.52 0 0 Z " fill="#00F9FB" transform="translate(666.4375,986.5)"/>
<path d="M0 0 C1.86 2.27 3.28 4.31 4.75 6.81 C5.15 7.46 5.55 8.1 5.96 8.76 C7.61 11.47 8.99 13.98 10 17 C10.99 17 11.98 17 13 17 C13.33 11.72 13.66 6.44 14 1 C19 0 19 0 21 1 C21.17 5.4 21.33 9.79 21.48 14.19 C21.54 15.69 21.59 17.18 21.65 18.68 C21.73 20.83 21.81 22.97 21.88 25.12 C21.93 26.41 21.97 27.71 22.02 29.04 C22 32 22 32 21 33 C18.25 33.38 18.25 33.38 15 33 C9.38 28.68 3.24 21.06 2 14 C1.34 14 0.68 14 0 14 C0.33 14.99 0.66 15.98 1 17 C1.1 19.55 1.14 22.07 1.12 24.62 C1.13 25.32 1.13 26.01 1.14 26.73 C1.13 31.87 1.13 31.87 0 33 C-2 33.04 -4 33.04 -6 33 C-7.46 30.08 -7.11 27.5 -7.1 24.24 C-7.1 23.58 -7.09 22.92 -7.09 22.23 C-7.09 20.11 -7.08 17.99 -7.06 15.88 C-7.06 14.44 -7.05 13 -7.05 11.57 C-7.04 8.04 -7.02 4.52 -7 1 C-4.3 -0.35 -2.99 -0.55 0 0 Z " fill="#00F8FA" transform="translate(602,985)"/>
<path d="M0 0 C2.27 2.27 1.74 8.11 2 11 C6.29 11.33 10.58 11.66 15 12 C15 7.71 15 3.42 15 -1 C16.65 -1 18.3 -1 20 -1 C22 1 22 1 22.23 4.07 C22.22 5.36 22.21 6.65 22.2 7.98 C22.19 8.66 22.19 9.35 22.19 10.05 C22.18 12.24 22.15 14.43 22.12 16.62 C22.11 18.11 22.11 19.59 22.1 21.08 C22.08 24.72 22.04 28.36 22 32 C20.02 32 18.04 32 16 32 C14.55 29.11 14.57 26.19 14.28 23 C14.2 21 14.2 21 13 20 C10.98 19.77 8.96 19.59 6.94 19.44 C5.83 19.35 4.73 19.27 3.59 19.18 C2.74 19.12 1.88 19.06 1 19 C1.01 19.85 1.02 20.71 1.04 21.59 C1.04 22.69 1.05 23.8 1.06 24.94 C1.07 26.04 1.09 27.14 1.1 28.28 C1 31 1 31 0 32 C-2 32.04 -4 32.04 -6 32 C-7.46 29.08 -7.11 26.5 -7.1 23.24 C-7.1 22.58 -7.09 21.92 -7.09 21.23 C-7.09 19.11 -7.08 16.99 -7.06 14.88 C-7.06 13.44 -7.05 12 -7.05 10.57 C-7.04 7.04 -7.02 3.52 -7 0 C-4.32 -1.34 -2.85 -0.73 0 0 Z " fill="#00F8FB" transform="translate(556,986)"/>
<path d="M0 0 C1.05 -0 2.1 -0.01 3.19 -0.01 C6 0.12 6 0.12 9 1.12 C11.15 4.35 11.2 5.41 11 9.12 C10.01 8.79 9.02 8.47 8 8.12 C5.86 7.95 3.71 7.86 1.56 7.81 C0.43 7.78 -0.7 7.74 -1.87 7.7 C-5.06 7.88 -5.06 7.88 -7.35 9.86 C-9.93 13.4 -10.36 16.8 -10 21.12 C-8.15 23.68 -6.78 24.73 -4 26.12 C-2.63 26.19 -1.25 26.21 0.12 26.19 C2.04 26.16 2.04 26.16 4 26.12 C3.73 23.69 3.73 23.69 3 21.12 C2.01 20.47 1.02 19.8 0 19.12 C0 17.8 0 16.49 0 15.12 C1.62 15.1 3.25 15.08 4.88 15.06 C6.23 15.05 6.23 15.05 7.62 15.03 C10 15.12 10 15.12 12 16.12 C12 21.08 12 26.02 12 31.12 C5.3 34.47 -0.09 35.72 -7.35 33.36 C-11.17 31.55 -14.32 29.45 -17 26.12 C-18.01 23.09 -18.17 20.93 -18.19 17.75 C-18.2 16.81 -18.22 15.88 -18.23 14.91 C-17.91 11.02 -17.04 8.26 -14.38 5.36 C-13.78 4.87 -13.18 4.38 -12.56 3.88 C-11.97 3.37 -11.37 2.87 -10.75 2.36 C-7.28 -0.09 -4.11 -0.01 0 0 Z " fill="#00F9FB" transform="translate(795,984.875)"/>
<path d="M0 0 C1.4 -0.02 1.4 -0.02 2.83 -0.04 C4.16 -0.04 4.16 -0.04 5.53 -0.04 C6.35 -0.05 7.17 -0.05 8.02 -0.06 C10.06 0.19 10.06 0.19 12.06 2.19 C11.73 3.84 11.4 5.49 11.06 7.19 C6.44 7.19 1.82 7.19 -2.94 7.19 C-2.94 8.84 -2.94 10.49 -2.94 12.19 C-1.28 13.84 0.87 13.82 3.12 14.25 C4.04 14.43 4.96 14.6 5.91 14.79 C6.62 14.92 7.33 15.05 8.06 15.19 C7.73 16.84 7.4 18.49 7.06 20.19 C2.11 20.68 2.11 20.68 -2.94 21.19 C-2.94 22.84 -2.94 24.49 -2.94 26.19 C0.35 27.83 3.91 27.15 7.53 27.03 C10.06 27.19 10.06 27.19 12.06 29.19 C12.06 30.51 12.06 31.83 12.06 33.19 C4.8 33.19 -2.46 33.19 -9.94 33.19 C-11.39 30.28 -11.07 27.71 -11.07 24.46 C-11.07 23.8 -11.07 23.14 -11.07 22.46 C-11.07 21.07 -11.07 19.67 -11.07 18.27 C-11.06 16.13 -11.07 13.99 -11.07 11.84 C-11.07 10.49 -11.07 9.13 -11.07 7.78 C-11.07 6.54 -11.07 5.3 -11.07 4.02 C-10.79 -1.98 -4.81 0 0 0 Z " fill="#00F9FB" transform="translate(476.9375,984.8125)"/>
<path d="M0 0 C1.05 -0 2.1 -0.01 3.19 -0.01 C6 0.12 6 0.12 9 1.12 C11 4.12 11 4.12 11 8.12 C9.9 8.07 8.81 8.01 7.68 7.95 C6.22 7.9 4.77 7.86 3.31 7.81 C2.23 7.75 2.23 7.75 1.13 7.69 C-2.95 7.59 -4.58 7.82 -8 10.28 C-10.29 13.54 -10.55 15.01 -10.31 18.94 C-10.24 20.4 -10.24 20.4 -10.18 21.89 C-10.12 22.63 -10.06 23.37 -10 24.12 C-5.59 26.33 -1.51 26.36 3.31 26.25 C4.42 26.24 4.42 26.24 5.56 26.22 C7.37 26.2 9.19 26.16 11 26.12 C11.12 28.5 11.12 28.5 11 31.12 C7.88 34.25 4.55 34.31 0.25 34.44 C-5.05 34.38 -8.62 33.03 -13 30.12 C-13.99 29.51 -14.98 28.89 -16 28.25 C-19.33 23.04 -18.81 17.12 -18 11.12 C-15.91 6 -13.84 3.85 -9 1.12 C-5.78 0.05 -3.38 -0.01 0 0 Z " fill="#00F9FB" transform="translate(522,984.875)"/>
<path d="M0 0 C4.12 -0.03 8.25 -0.05 12.38 -0.06 C14.14 -0.08 14.14 -0.08 15.94 -0.09 C17.62 -0.09 17.62 -0.09 19.34 -0.1 C20.89 -0.11 20.89 -0.11 22.48 -0.11 C25 0 25 0 27 1 C27 1.66 27 2.32 27 3 C18.75 3 10.5 3 2 3 C2 48.21 2 93.42 2 140 C4.64 139.67 7.28 139.34 10 139 C12.81 138.94 15.57 139.12 18.38 139.31 C19.09 139.35 19.8 139.38 20.53 139.42 C25.75 139.75 25.75 139.75 28 142 C27 143 27 143 24.5 143.11 C23.42 143.11 22.33 143.1 21.21 143.1 C20.05 143.09 18.88 143.09 17.67 143.09 C16.44 143.08 15.21 143.07 13.94 143.06 C12.08 143.06 12.08 143.06 10.19 143.05 C7.13 143.04 4.06 143.02 1 143 C-0.32 140.35 -0.12 138.37 -0.12 135.41 C-0.12 134.22 -0.12 133.03 -0.12 131.8 C-0.12 130.49 -0.12 129.18 -0.11 127.83 C-0.11 126.44 -0.11 125.05 -0.11 123.66 C-0.11 119.88 -0.11 116.1 -0.1 112.33 C-0.1 108.38 -0.09 104.43 -0.09 100.49 C-0.09 93.01 -0.08 85.53 -0.07 78.06 C-0.06 69.55 -0.06 61.04 -0.05 52.53 C-0.04 35.02 -0.02 17.51 0 0 Z " fill="#EAEDEF" transform="translate(650,773)"/>
<path d="M0 0 C2.64 0.34 2.64 0.34 4.45 2.23 C4.94 3.05 5.44 3.87 5.96 4.71 C6.47 5.52 6.98 6.34 7.51 7.17 C8.64 9.34 8.64 9.34 8.64 11.34 C9.96 11.67 11.28 12 12.64 12.34 C13.01 11.55 13.37 10.77 13.75 9.96 C14.25 8.95 14.75 7.94 15.27 6.9 C15.76 5.89 16.24 4.88 16.75 3.84 C18.64 1.34 18.64 1.34 21.86 0.49 C23.24 0.41 23.24 0.41 24.64 0.34 C25.43 2.61 25.83 3.85 24.95 6.14 C24.57 6.73 24.2 7.32 23.81 7.94 C23.2 8.92 23.2 8.92 22.58 9.92 C21.93 10.93 21.93 10.93 21.27 11.96 C20.43 13.31 19.59 14.65 18.75 16 C17.71 17.65 17.71 17.65 16.64 19.34 C15.29 22.04 15.31 24.45 15.08 27.46 C15 28.56 14.91 29.65 14.83 30.78 C14.74 32.05 14.74 32.05 14.64 33.34 C12.66 33.34 10.68 33.34 8.64 33.34 C7.48 31.01 7.64 29.79 7.64 27.21 C7.02 19.61 2.51 13.42 -1.43 7.1 C-2.44 5.18 -3 3.47 -3.36 1.34 C-2.36 0.34 -2.36 0.34 0 0 Z " fill="#00FAFC" transform="translate(826.35546875,984.6640625)"/>
<path d="M0 0 C3.96 -0.06 7.92 -0.09 11.88 -0.12 C13 -0.14 14.13 -0.16 15.29 -0.18 C16.37 -0.18 17.45 -0.19 18.55 -0.2 C19.55 -0.21 20.54 -0.22 21.57 -0.23 C24 0 24 0 26 2 C25.62 4.62 25.62 4.62 25 7 C22.36 7 19.72 7 17 7 C17.01 8.13 17.01 8.13 17.02 9.28 C17.04 12.67 17.05 16.05 17.06 19.44 C17.07 20.62 17.08 21.81 17.09 23.03 C17.09 24.71 17.09 24.71 17.1 26.43 C17.11 28 17.11 28 17.11 29.59 C17 32 17 32 16 33 C14 33.04 12 33.04 10 33 C8.74 30.48 8.79 28.59 8.68 25.77 C8.64 24.74 8.6 23.71 8.56 22.65 C8.52 21.57 8.48 20.49 8.44 19.38 C8.39 18.29 8.35 17.2 8.31 16.08 C8.2 13.39 8.1 10.69 8 8 C6.87 7.69 5.73 7.38 4.56 7.06 C1 6 1 6 0 5 C-0.04 3.33 -0.04 1.67 0 0 Z " fill="#00F7FA" transform="translate(425,985)"/>
<path d="M0 0 C2.5 1.88 3.62 3.24 5 6 C5.65 10.74 5.66 14 3 18.06 C-0.76 20.49 -3.7 20.88 -8 20 C-11.44 18.5 -11.44 18.5 -14 16 C-15.58 11.83 -15.29 8.77 -13.75 4.62 C-10.2 -0.7 -5.91 -0.9 0 0 Z " fill="#000102" transform="translate(749,992)"/>
<path d="M0 0 C3.18 2.55 4.22 5.04 5 8.94 C5.23 12.11 4.87 13.33 3.62 16.44 C0.45 19.53 -1.42 19.97 -5.74 20.18 C-9.03 19.92 -11.29 18.83 -14 17 C-15.22 14.56 -15.2 12.85 -15.25 10.12 C-15.28 9.26 -15.3 8.4 -15.33 7.51 C-14.93 4.49 -14.09 3.18 -12 1 C-7.94 -0.35 -4.24 -0.66 0 0 Z " fill="#000102" transform="translate(662,992)"/>
<path d="M0 0 C0 8.25 0 16.5 0 25 C3.29 25.1 6.58 25.2 9.86 25.29 C13 26 13 26 14.92 28.55 C15.45 29.76 15.45 29.76 16 31 C15 32 15 32 12.96 32.11 C11.65 32.11 11.65 32.11 10.31 32.1 C9.36 32.09 8.42 32.09 7.45 32.09 C6.45 32.08 5.46 32.07 4.44 32.06 C3.44 32.06 2.44 32.05 1.42 32.05 C-1.06 32.04 -3.53 32.02 -6 32 C-7.46 29.08 -7.11 26.5 -7.1 23.24 C-7.1 22.58 -7.09 21.92 -7.09 21.23 C-7.09 19.11 -7.08 16.99 -7.06 14.88 C-7.06 13.44 -7.05 12 -7.05 10.57 C-7.04 7.04 -7.02 3.52 -7 0 C-5 -1 -5 -1 0 0 Z " fill="#00F6F9" transform="translate(697,986)"/>
<path d="M0 0 C7.79 -0.07 15.58 -0.12 23.37 -0.16 C26.98 -0.17 30.6 -0.19 34.21 -0.23 C37.7 -0.26 41.19 -0.28 44.68 -0.28 C46.66 -0.29 48.64 -0.32 50.63 -0.34 C51.83 -0.34 53.03 -0.34 54.27 -0.34 C55.33 -0.35 56.39 -0.35 57.48 -0.36 C58.31 -0.24 59.14 -0.12 60 0 C60.66 0.99 61.32 1.98 62 3 C41.54 3 21.08 3 0 3 C0 2.01 0 1.02 0 0 Z " fill="#F3F7F8" transform="translate(704,773)"/>
<path d="M0 0 C1.16 4.63 0.7 7.33 0 12 C-4.66 12.05 -9.33 12.09 -13.99 12.11 C-15.58 12.12 -17.16 12.13 -18.75 12.15 C-21.03 12.18 -23.31 12.19 -25.59 12.2 C-26.3 12.21 -27.01 12.22 -27.74 12.23 C-29.5 12.23 -31.25 12.12 -33 12 C-33.66 11.34 -34.32 10.68 -35 10 C-34.62 6.88 -34.62 6.88 -34 4 C-33.67 4 -33.34 4 -33 4 C-33 5.65 -33 7.3 -33 9 C-32.1 8.92 -31.21 8.83 -30.28 8.75 C-20.73 7.97 -11.54 8.18 -2 9 C-1.34 6.03 -0.68 3.06 0 0 Z " fill="#F3F7F8" transform="translate(608,904)"/>
<path d="M0 0 C0.66 0.99 1.32 1.98 2 3 C2.72 2.83 3.43 2.67 4.17 2.49 C7 2 9.43 1.97 12.3 2.12 C13.28 2.17 14.25 2.22 15.26 2.27 C16.77 2.35 16.77 2.35 18.31 2.44 C19.85 2.52 19.85 2.52 21.42 2.6 C23.95 2.72 26.47 2.86 29 3 C29 3.99 29 4.98 29 6 C19.76 6 10.52 6 1 6 C0.34 4.68 -0.32 3.36 -1 2 C-0.67 1.34 -0.34 0.68 0 0 Z " fill="#F4F8F9" transform="translate(459,910)"/>
<path d="M0 0 C3.96 -0.03 7.92 -0.05 11.88 -0.06 C13.57 -0.08 13.57 -0.08 15.29 -0.09 C16.37 -0.09 17.45 -0.09 18.55 -0.1 C19.55 -0.1 20.54 -0.11 21.57 -0.11 C24 0 24 0 26 1 C26 3.97 26 6.94 26 10 C25.67 10 25.34 10 25 10 C25 7.69 25 5.38 25 3 C17.08 3 9.16 3 1 3 C1 5.31 1 7.62 1 10 C0.67 10 0.34 10 0 10 C0 6.7 0 3.4 0 0 Z " fill="#F4F8F9" transform="translate(554,773)"/>
<path d="M0 0 C23.38 -0.31 23.38 -0.31 28 2 C28 2.66 28 3.32 28 4 C19.09 4 10.18 4 1 4 C0.67 2.68 0.34 1.36 0 0 Z " fill="#F4F8F9" transform="translate(415,912)"/>
<path d="M0 0 C0 0.66 0 1.32 0 2 C-8.91 2 -17.82 2 -27 2 C-27 1.01 -27 0.02 -27 -1 C-6.33 -3.17 -6.33 -3.17 0 0 Z " fill="#F4F8F9" transform="translate(822,914)"/>
<path d="M0 0 C4.29 -0.03 8.58 -0.05 12.88 -0.06 C14.71 -0.08 14.71 -0.08 16.58 -0.09 C18.33 -0.09 18.33 -0.09 20.12 -0.1 C21.74 -0.11 21.74 -0.11 23.39 -0.11 C26 0 26 0 28 1 C28 1.66 28 2.32 28 3 C18.76 3 9.52 3 0 3 C0 2.01 0 1.02 0 0 Z " fill="#F4F8F9" transform="translate(457,773)"/>
<path d="M0 0 C4.29 -0.09 8.58 -0.14 12.88 -0.19 C14.71 -0.23 14.71 -0.23 16.58 -0.26 C18.33 -0.28 18.33 -0.28 20.12 -0.29 C21.74 -0.32 21.74 -0.32 23.39 -0.34 C24.68 -0.17 24.68 -0.17 26 0 C26.66 0.99 27.32 1.98 28 3 C18.76 3 9.52 3 0 3 C0 2.01 0 1.02 0 0 Z " fill="#F4F8F9" transform="translate(596,773)"/>
<path d="M0 0 C4.29 -0.03 8.58 -0.05 12.88 -0.06 C14.71 -0.08 14.71 -0.08 16.58 -0.09 C18.33 -0.09 18.33 -0.09 20.12 -0.1 C21.74 -0.11 21.74 -0.11 23.39 -0.11 C26 0 26 0 28 1 C28 1.66 28 2.32 28 3 C19.09 3 10.18 3 1 3 C0.67 2.01 0.34 1.02 0 0 Z " fill="#F4F8F9" transform="translate(415,773)"/>
<path d="M0 0 C0 0.66 0 1.32 0 2 C-8.91 2 -17.82 2 -27 2 C-26.67 1.01 -26.34 0.02 -26 -1 C-18.18 -2.17 -7.24 -3.62 0 0 Z " fill="#F4F8F9" transform="translate(864,914)"/>
<path d="M0 0 C0.66 0.66 1.32 1.32 2 2 C1 3 1 3 -1.5 3.11 C-2.58 3.11 -3.67 3.1 -4.79 3.1 C-5.95 3.09 -7.12 3.09 -8.33 3.09 C-9.56 3.08 -10.79 3.07 -12.06 3.06 C-13.92 3.06 -13.92 3.06 -15.81 3.05 C-18.87 3.04 -21.94 3.02 -25 3 C-25.33 2.34 -25.66 1.68 -26 1 C-18.65 -2.67 -7.79 -1.2 0 0 Z " fill="#F4F8F9" transform="translate(747,913)"/>
<path d="M0 0 C4.29 -0.03 8.58 -0.05 12.88 -0.06 C14.71 -0.08 14.71 -0.08 16.58 -0.09 C18.33 -0.09 18.33 -0.09 20.12 -0.1 C21.74 -0.11 21.74 -0.11 23.39 -0.11 C26 0 26 0 28 1 C27.67 1.66 27.34 2.32 27 3 C18.42 3 9.84 3 1 3 C0.67 2.01 0.34 1.02 0 0 Z " fill="#F3F7F8" transform="translate(836,773)"/>
<path d="M0 0 C4.29 -0.09 8.58 -0.14 12.88 -0.19 C14.71 -0.23 14.71 -0.23 16.58 -0.26 C18.33 -0.28 18.33 -0.28 20.12 -0.29 C21.74 -0.32 21.74 -0.32 23.39 -0.34 C24.68 -0.17 24.68 -0.17 26 0 C26.66 0.99 27.32 1.98 28 3 C19.09 3 10.18 3 1 3 C0.67 2.01 0.34 1.02 0 0 Z " fill="#F4F8F9" transform="translate(794,773)"/>
<path d="M0 0 C4.12 -0.03 8.25 -0.05 12.38 -0.06 C14.14 -0.08 14.14 -0.08 15.94 -0.09 C17.62 -0.09 17.62 -0.09 19.34 -0.1 C20.89 -0.11 20.89 -0.11 22.48 -0.11 C25 0 25 0 27 1 C27 1.66 27 2.32 27 3 C18.09 3 9.18 3 0 3 C0 2.01 0 1.02 0 0 Z " fill="#F3F7F8" transform="translate(510,773)"/>
<path d="M0 0 C1.27 0.93 2.54 1.87 3.81 2.81 C4.52 3.33 5.23 3.86 5.96 4.39 C9.59 7.25 11.63 10.04 14 14 C15.74 16.06 17.18 17.1 19.56 18.44 C22.16 20.1 22.93 21.17 24 24 C20.15 22.68 17.74 21.13 14.86 18.26 C13.75 17.15 13.75 17.15 12.62 16.03 C11.86 15.25 11.1 14.48 10.31 13.69 C9.54 12.93 8.77 12.17 7.97 11.38 C7.24 10.64 6.5 9.9 5.74 9.14 C5.07 8.46 4.4 7.79 3.71 7.1 C1.86 4.83 0.94 2.75 0 0 Z " fill="#00ACC9" transform="translate(633,465)"/>
<path d="M0 0 C-1.41 3.22 -3.1 5.32 -5.62 7.75 C-6.57 8.67 -6.57 8.67 -7.54 9.61 C-8.02 10.07 -8.5 10.53 -9 11 C-9.66 10.34 -10.32 9.68 -11 9 C-9.55 7.49 -8.09 6 -6.62 4.5 C-5.41 3.25 -5.41 3.25 -4.16 1.97 C-2 0 -2 0 0 0 Z " fill="#0096BA" transform="translate(552,491)"/>
<path d="M0 0 C0.33 0 0.66 0 1 0 C1.33 2.64 1.66 5.28 2 8 C5.3 8.66 8.6 9.32 12 10 C11.01 10.5 11.01 10.5 10 11 C10 11.66 10 12.32 10 13 C6.44 12.39 3.32 11.42 0 10 C0 6.7 0 3.4 0 0 Z " fill="#00E2EC" transform="translate(556,989)"/>
<path d="M0 0 C0.66 0 1.32 0 2 0 C2.85 3.67 3.11 7.04 3.06 10.81 C3.05 11.79 3.04 12.76 3.04 13.77 C3.02 14.51 3.01 15.24 3 16 C2.34 16 1.68 16 1 16 C0.67 10.72 0.34 5.44 0 0 Z " fill="#E5E7E9" transform="translate(511,788)"/>
<path d="M0 0 C3.63 0 7.26 0 11 0 C11.33 0.66 11.66 1.32 12 2 C5.56 2.5 5.56 2.5 -1 3 C-0.67 2.01 -0.34 1.02 0 0 Z " fill="#00DDE9" transform="translate(476,1012)"/>
<path d="M0 0 C5.75 -0.12 5.75 -0.12 8 1 C7.67 2.65 7.34 4.3 7 6 C5.68 5.67 4.36 5.34 3 5 C2.88 4.36 2.75 3.72 2.62 3.06 C2.32 2.04 2.32 2.04 2 1 C1.34 0.67 0.68 0.34 0 0 Z " fill="#00E6EE" transform="translate(477,999)"/>
</svg>
